<svg id="al93k4as9h1z" version="1.1" xmlns="http://www.w3.org/2000/svg" xmlns:xlink="http://www.w3.org/1999/xlink" width="136.01000000000002" height="35.655" viewBox="0 0 136.01000000000002 35.655" style="" ><svg x="0" y="0" ><svg x="0" y="0" fill="#fff" ><path d="M15.855 3.150L7.175 3.150L7.175 3.150Q6.335 3.150 5.600 3.465L5.600 3.465L5.600 3.465Q4.865 3.780 4.322 4.322L4.322 4.322L4.322 4.322Q3.780 4.865 3.465 5.600L3.465 5.600L3.465 5.600Q3.150 6.335 3.150 7.175L3.150 7.175L3.150 7.245L3.150 7.245Q3.150 8.085 3.465 8.802L3.465 8.802L3.465 8.802Q3.780 9.520 4.322 10.080L4.322 10.080L4.322 10.080Q4.865 10.640 5.600 10.955L5.600 10.955L5.600 10.955Q6.335 11.270 7.175 11.270L7.175 11.270L8.715 11.270L8.715 11.270Q10.010 11.270 11.130 11.707L11.130 11.707L11.130 11.707Q12.250 12.145 13.195 12.845L13.195 12.845L13.195 12.845Q14.420 13.825 15.138 15.277L15.138 15.277L15.138 15.277Q15.855 16.730 15.855 18.410L15.855 18.410L15.855 18.480L15.855 18.480Q15.855 19.950 15.295 21.263L15.295 21.263L15.295 21.263Q14.735 22.575 13.773 23.555L13.773 23.555L13.773 23.555Q12.810 24.535 11.498 25.095L11.498 25.095L11.498 25.095Q10.185 25.655 8.715 25.655L8.715 25.655L0.000 25.655L0.000 22.505L8.715 22.505L8.715 22.505Q9.555 22.505 10.290 22.190L10.290 22.190L10.290 22.190Q11.025 21.875 11.568 21.332L11.568 21.332L11.568 21.332Q12.110 20.790 12.425 20.055L12.425 20.055L12.425 20.055Q12.740 19.320 12.740 18.480L12.740 18.480L12.740 18.410L12.740 18.410Q12.740 17.570 12.425 16.852L12.425 16.852L12.425 16.852Q12.110 16.135 11.568 15.575L11.568 15.575L11.568 15.575Q11.025 15.015 10.290 14.700L10.290 14.700L10.290 14.700Q9.555 14.385 8.715 14.385L8.715 14.385L7.035 14.385L7.035 14.385Q5.565 14.350 4.270 13.773L4.270 13.773L4.270 13.773Q2.975 13.195 2.030 12.232L2.030 12.232L2.030 12.232Q1.085 11.270 0.543 9.992L0.543 9.992L0.543 9.992Q0.000 8.715 0.000 7.245L0.000 7.245L0.000 7.175L0.000 7.175Q0.000 5.705 0.560 4.392L0.560 4.392L0.560 4.392Q1.120 3.080 2.100 2.100L2.100 2.100L2.100 2.100Q3.080 1.120 4.393 0.560L4.393 0.560L4.393 0.560Q5.705 0 7.175 0L7.175 0L15.855 0L15.855 3.150ZM31.850 25.655L31.850 25.655L31.850 25.655Q29.225 25.655 26.915 24.693L26.915 24.693L26.915 24.693Q24.605 23.730 22.785 21.910L22.785 21.910L22.785 21.910Q20.965 20.090 20.002 17.745L20.002 17.745L20.002 17.745Q19.040 15.400 19.040 12.845L19.040 12.845L19.040 12.845Q19.040 10.255 20.002 7.910L20.002 7.910L20.002 7.910Q20.965 5.565 22.785 3.745L22.785 3.745L22.785 3.745Q24.605 1.925 26.915 0.962L26.915 0.962L26.915 0.962Q29.225 0 31.850 0L31.850 0L31.850 0Q34.440 0 36.750 0.962L36.750 0.962L36.750 0.962Q39.060 1.925 40.880 3.745L40.880 3.745L40.880 3.745Q42.735 5.565 43.715 7.910L43.715 7.910L43.715 7.910Q44.695 10.255 44.695 12.845L44.695 12.845L44.695 12.845Q44.695 15.400 43.715 17.745L43.715 17.745L43.715 17.745Q42.735 20.090 40.880 21.910L40.880 21.910L40.880 21.910Q39.060 23.730 36.750 24.693L36.750 24.693L36.750 24.693Q34.440 25.655 31.850 25.655M31.850 3.150L31.850 3.150L31.850 3.150Q29.855 3.150 28.087 3.902L28.087 3.902L28.087 3.902Q26.320 4.655 25.008 5.967L25.008 5.967L25.008 5.967Q23.695 7.280 22.942 9.047L22.942 9.047L22.942 9.047Q22.190 10.815 22.190 12.845L22.190 12.845L22.190 12.845Q22.190 14.840 22.942 16.608L22.942 16.608L22.942 16.608Q23.695 18.375 25.008 19.688L25.008 19.688L25.008 19.688Q26.320 21 28.087 21.753L28.087 21.753L28.087 21.753Q29.855 22.505 31.850 22.505L31.850 22.505L31.850 22.505Q33.845 22.505 35.612 21.753L35.612 21.753L35.612 21.753Q37.380 21 38.693 19.688L38.693 19.688L38.693 19.688Q40.005 18.375 40.775 16.608L40.775 16.608L40.775 16.608Q41.545 14.840 41.545 12.845L41.545 12.845L41.545 12.845Q41.545 10.815 40.775 9.047L40.775 9.047L40.775 9.047Q40.005 7.280 38.693 5.967L38.693 5.967L38.693 5.967Q37.380 4.655 35.612 3.902L35.612 3.902L35.612 3.902Q33.845 3.150 31.850 3.150ZM56.700 25.655L56.700 25.655L56.700 25.655Q54.915 25.655 53.358 24.990L53.358 24.990L53.358 24.990Q51.800 24.325 50.628 23.152L50.628 23.152L50.628 23.152Q49.455 21.980 48.790 20.422L48.790 20.422L48.790 20.422Q48.125 18.865 48.125 17.080L48.125 17.080L48.125 0L51.275 0L51.275 17.080L51.275 17.080Q51.275 18.200 51.695 19.198L51.695 19.198L51.695 19.198Q52.115 20.195 52.850 20.930L52.850 20.930L52.850 20.930Q53.585 21.665 54.583 22.085L54.583 22.085L54.583 22.085Q55.580 22.505 56.700 22.505L56.700 22.505L56.700 22.505Q57.820 22.505 58.800 22.085L58.800 22.085L58.800 22.085Q59.780 21.665 60.515 20.930L60.515 20.930L60.515 20.930Q61.250 20.195 61.688 19.198L61.688 19.198L61.688 19.198Q62.125 18.200 62.125 17.080L62.125 17.080L62.125 0L65.275 0L65.275 17.080L65.275 17.080Q65.275 18.865 64.610 20.422L64.610 20.422L64.610 20.422Q63.945 21.980 62.773 23.152L62.773 23.152L62.773 23.152Q61.600 24.325 60.043 24.990L60.043 24.990L60.043 24.990Q58.485 25.655 56.700 25.655ZM84.630 3.150L75.950 3.150L75.950 3.150Q75.110 3.150 74.375 3.465L74.375 3.465L74.375 3.465Q73.640 3.780 73.098 4.322L73.098 4.322L73.098 4.322Q72.555 4.865 72.240 5.600L72.240 5.600L72.240 5.600Q71.925 6.335 71.925 7.175L71.925 7.175L71.925 7.245L71.925 7.245Q71.925 8.085 72.240 8.802L72.240 8.802L72.240 8.802Q72.555 9.520 73.098 10.080L73.098 10.080L73.098 10.080Q73.640 10.640 74.375 10.955L74.375 10.955L74.375 10.955Q75.110 11.270 75.950 11.270L75.950 11.270L77.490 11.270L77.490 11.270Q78.785 11.270 79.905 11.707L79.905 11.707L79.905 11.707Q81.025 12.145 81.970 12.845L81.970 12.845L81.970 12.845Q83.195 13.825 83.913 15.277L83.913 15.277L83.913 15.277Q84.630 16.730 84.630 18.410L84.630 18.410L84.630 18.480L84.630 18.480Q84.630 19.950 84.070 21.263L84.070 21.263L84.070 21.263Q83.510 22.575 82.548 23.555L82.548 23.555L82.548 23.555Q81.585 24.535 80.273 25.095L80.273 25.095L80.273 25.095Q78.960 25.655 77.490 25.655L77.490 25.655L68.775 25.655L68.775 22.505L77.490 22.505L77.490 22.505Q78.330 22.505 79.065 22.190L79.065 22.190L79.065 22.190Q79.800 21.875 80.343 21.332L80.343 21.332L80.343 21.332Q80.885 20.790 81.200 20.055L81.200 20.055L81.200 20.055Q81.515 19.320 81.515 18.480L81.515 18.480L81.515 18.410L81.515 18.410Q81.515 17.570 81.200 16.852L81.200 16.852L81.200 16.852Q80.885 16.135 80.343 15.575L80.343 15.575L80.343 15.575Q79.800 15.015 79.065 14.700L79.065 14.700L79.065 14.700Q78.330 14.385 77.490 14.385L77.490 14.385L75.810 14.385L75.810 14.385Q74.340 14.350 73.045 13.773L73.045 13.773L73.045 13.773Q71.750 13.195 70.805 12.232L70.805 12.232L70.805 12.232Q69.860 11.270 69.318 9.992L69.318 9.992L69.318 9.992Q68.775 8.715 68.775 7.245L68.775 7.245L68.775 7.175L68.775 7.175Q68.775 5.705 69.335 4.392L69.335 4.392L69.335 4.392Q69.895 3.080 70.875 2.100L70.875 2.100L70.875 2.100Q71.855 1.120 73.168 0.560L73.168 0.560L73.168 0.560Q74.480 0 75.950 0L75.950 0L84.630 0L84.630 3.150ZM100.870 3.745L99.120 7.455L99.120 7.455L90.650 25.655L87.185 25.655L97.405 3.745L97.405 3.745L99.120 0L100.870 3.745M111.020 25.655L107.555 25.655L100.870 11.200L102.585 7.490L111.020 25.655ZM116.515 0L116.515 25.655L113.365 25.655L113.365 0L116.515 0ZM136.010 3.150L127.330 3.150L127.330 3.150Q126.490 3.150 125.755 3.465L125.755 3.465L125.755 3.465Q125.020 3.780 124.478 4.322L124.478 4.322L124.478 4.322Q123.935 4.865 123.620 5.600L123.620 5.600L123.620 5.600Q123.305 6.335 123.305 7.175L123.305 7.175L123.305 7.245L123.305 7.245Q123.305 8.085 123.620 8.802L123.620 8.802L123.620 8.802Q123.935 9.520 124.478 10.080L124.478 10.080L124.478 10.080Q125.020 10.640 125.755 10.955L125.755 10.955L125.755 10.955Q126.490 11.270 127.330 11.270L127.330 11.270L128.870 11.270L128.870 11.270Q130.165 11.270 131.285 11.707L131.285 11.707L131.285 11.707Q132.405 12.145 133.350 12.845L133.350 12.845L133.350 12.845Q134.575 13.825 135.293 15.277L135.293 15.277L135.293 15.277Q136.010 16.730 136.010 18.410L136.010 18.410L136.010 18.480L136.010 18.480Q136.010 19.950 135.450 21.263L135.450 21.263L135.450 21.263Q134.890 22.575 133.928 23.555L133.928 23.555L133.928 23.555Q132.965 24.535 131.653 25.095L131.653 25.095L131.653 25.095Q130.340 25.655 128.870 25.655L128.870 25.655L120.155 25.655L120.155 22.505L128.870 22.505L128.870 22.505Q129.710 22.505 130.445 22.190L130.445 22.190L130.445 22.190Q131.180 21.875 131.723 21.332L131.723 21.332L131.723 21.332Q132.265 20.790 132.580 20.055L132.580 20.055L132.580 20.055Q132.895 19.320 132.895 18.480L132.895 18.480L132.895 18.410L132.895 18.410Q132.895 17.570 132.580 16.852L132.580 16.852L132.580 16.852Q132.265 16.135 131.723 15.575L131.723 15.575L131.723 15.575Q131.180 15.015 130.445 14.700L130.445 14.700L130.445 14.700Q129.710 14.385 128.870 14.385L128.870 14.385L127.190 14.385L127.190 14.385Q125.720 14.350 124.425 13.773L124.425 13.773L124.425 13.773Q123.130 13.195 122.185 12.232L122.185 12.232L122.185 12.232Q121.240 11.270 120.698 9.992L120.698 9.992L120.698 9.992Q120.155 8.715 120.155 7.245L120.155 7.245L120.155 7.175L120.155 7.175Q120.155 5.705 120.715 4.392L120.715 4.392L120.715 4.392Q121.275 3.080 122.255 2.100L122.255 2.100L122.255 2.100Q123.235 1.120 124.548 0.560L124.548 0.560L124.548 0.560Q125.860 0 127.330 0L127.330 0L136.010 0L136.010 3.150Z" ></path></svg></svg></svg>